<svg xmlns="http://www.w3.org/2000/svg" viewBox="0 0 1200 1200" width="1200" height="1200">
  <defs>
    <linearGradient id="bg" x1="0%" y1="0%" x2="100%" y2="100%">
      <stop offset="0%" stop-color="#f8fafc"/>
      <stop offset="100%" stop-color="#eff6ff"/>
    </linearGradient>
    <linearGradient id="titleGrad" x1="0%" y1="0%" x2="100%" y2="0%">
      <stop offset="0%" stop-color="#1e3a8a"/>
      <stop offset="100%" stop-color="#2563eb"/>
    </linearGradient>
    <linearGradient id="srcFlow" x1="0%" y1="0%" x2="100%" y2="0%">
      <stop offset="0%" stop-color="#2563eb" stop-opacity="0.6"/>
      <stop offset="100%" stop-color="#1d4ed8" stop-opacity="0.95"/>
    </linearGradient>
    <linearGradient id="actFlow" x1="0%" y1="0%" x2="100%" y2="0%">
      <stop offset="0%" stop-color="#047857" stop-opacity="0.95"/>
      <stop offset="100%" stop-color="#059669" stop-opacity="0.6"/>
    </linearGradient>
  </defs>

  <!-- Background -->
  <rect width="1200" height="1200" fill="url(#bg)"/>

  <!-- Top chip badge -->
  <g transform="translate(600, 70)">
    <rect x="-170" y="-20" width="340" height="40" rx="20" ry="20" fill="#dbeafe" stroke="#3b82f6" stroke-width="1.5"/>
    <text x="0" y="6" text-anchor="middle" font-family="Inter, -apple-system, system-ui, sans-serif" font-size="14" font-weight="700" letter-spacing="3" fill="#1e3a8a">PERSONAL AI ARCHITECTURE</text>
  </g>

  <!-- Title -->
  <text x="600" y="160" text-anchor="middle" font-family="Inter, -apple-system, system-ui, sans-serif" font-size="48" font-weight="800" fill="url(#titleGrad)" letter-spacing="-1">Building a Personal AI</text>
  <text x="600" y="215" text-anchor="middle" font-family="Inter, -apple-system, system-ui, sans-serif" font-size="48" font-weight="800" fill="url(#titleGrad)" letter-spacing="-1">That Actually Knows You</text>

  <!-- Subtitle / positioning statement -->
  <text x="600" y="265" text-anchor="middle" font-family="Inter, -apple-system, system-ui, sans-serif" font-size="20" font-weight="500" fill="#475569">A vendor-agnostic knowledge architecture · model-swappable by design</text>

  <!-- Column headers -->
  <text x="200" y="340" text-anchor="middle" font-family="Inter, sans-serif" font-size="13" font-weight="700" letter-spacing="3" fill="#1e40af">DATA SOURCES</text>
  <text x="600" y="340" text-anchor="middle" font-family="Inter, sans-serif" font-size="13" font-weight="700" letter-spacing="3" fill="#92400e">KNOWLEDGE &amp; MEMORY</text>
  <text x="1000" y="340" text-anchor="middle" font-family="Inter, sans-serif" font-size="13" font-weight="700" letter-spacing="3" fill="#065f46">AGENT ACTIONS</text>

  <!-- Connector paths (behind boxes) -->
  <g fill="none" stroke-linecap="round" stroke-width="2">
    <!-- Sources to knowledge -->
    <path d="M 320,400 C 460,400 460,530 520,530" stroke="url(#srcFlow)" stroke-opacity="0.85"/>
    <path d="M 320,470 C 460,470 460,530 520,530" stroke="url(#srcFlow)" stroke-opacity="0.85"/>
    <path d="M 320,540 C 460,540 460,530 520,530" stroke="url(#srcFlow)" stroke-opacity="0.85"/>
    <path d="M 320,610 C 460,610 460,620 520,620" stroke="url(#srcFlow)" stroke-opacity="0.85"/>
    <path d="M 320,680 C 460,680 460,710 520,710" stroke="url(#srcFlow)" stroke-opacity="0.85"/>
    <path d="M 320,750 C 460,750 460,800 520,800" stroke="url(#srcFlow)" stroke-opacity="0.85"/>

    <path d="M 320,400 C 460,400 460,620 520,620" stroke="url(#srcFlow)" stroke-opacity="0.55"/>
    <path d="M 320,470 C 460,470 460,710 520,710" stroke="url(#srcFlow)" stroke-opacity="0.55"/>
    <path d="M 320,540 C 460,540 460,800 520,800" stroke="url(#srcFlow)" stroke-opacity="0.55"/>
    <path d="M 320,610 C 460,610 460,530 520,530" stroke="url(#srcFlow)" stroke-opacity="0.55"/>
    <path d="M 320,680 C 460,680 460,620 520,620" stroke="url(#srcFlow)" stroke-opacity="0.55"/>
    <path d="M 320,750 C 460,750 460,710 520,710" stroke="url(#srcFlow)" stroke-opacity="0.55"/>

    <!-- Knowledge to actions -->
    <path d="M 680,530 C 800,530 800,450 880,450" stroke="url(#actFlow)" stroke-opacity="0.85"/>
    <path d="M 680,530 C 800,530 800,520 880,520" stroke="url(#actFlow)" stroke-opacity="0.85"/>
    <path d="M 680,620 C 800,620 800,590 880,590" stroke="url(#actFlow)" stroke-opacity="0.85"/>
    <path d="M 680,620 C 800,620 800,660 880,660" stroke="url(#actFlow)" stroke-opacity="0.85"/>
    <path d="M 680,710 C 800,710 800,730 880,730" stroke="url(#actFlow)" stroke-opacity="0.85"/>
    <path d="M 680,800 C 800,800 800,730 880,730" stroke="url(#actFlow)" stroke-opacity="0.85"/>
    <path d="M 680,800 C 800,800 800,660 880,660" stroke="url(#actFlow)" stroke-opacity="0.55"/>
  </g>

  <!-- LEFT: Data Sources -->
  <g font-family="Inter, -apple-system, system-ui, sans-serif">
    <!-- Calendar & email -->
    <rect x="80" y="380" width="240" height="50" rx="10" fill="#dbeafe" stroke="#3b82f6" stroke-width="2"/>
    <text x="200" y="410" text-anchor="middle" font-size="16" font-weight="700" fill="#1e3a8a">Calendar &amp; email</text>
    <!-- Meetings -->
    <rect x="80" y="450" width="240" height="50" rx="10" fill="#dbeafe" stroke="#3b82f6" stroke-width="2"/>
    <text x="200" y="480" text-anchor="middle" font-size="16" font-weight="700" fill="#1e3a8a">Meeting transcripts</text>
    <!-- Curated feeds -->
    <rect x="80" y="520" width="240" height="50" rx="10" fill="#dbeafe" stroke="#3b82f6" stroke-width="2"/>
    <text x="200" y="550" text-anchor="middle" font-size="16" font-weight="700" fill="#1e3a8a">Curated AI feeds</text>
    <!-- Campus signals -->
    <rect x="80" y="590" width="240" height="50" rx="10" fill="#dbeafe" stroke="#3b82f6" stroke-width="2"/>
    <text x="200" y="620" text-anchor="middle" font-size="16" font-weight="700" fill="#1e3a8a">Campus signals</text>
    <!-- Confluence -->
    <rect x="80" y="660" width="240" height="50" rx="10" fill="#dbeafe" stroke="#3b82f6" stroke-width="2"/>
    <text x="200" y="690" text-anchor="middle" font-size="16" font-weight="700" fill="#1e3a8a">Confluence</text>
    <!-- Teams -->
    <rect x="80" y="730" width="240" height="50" rx="10" fill="#dbeafe" stroke="#3b82f6" stroke-width="2"/>
    <text x="200" y="760" text-anchor="middle" font-size="16" font-weight="700" fill="#1e3a8a">Teams</text>
  </g>

  <!-- MIDDLE: Knowledge Layers -->
  <g font-family="Inter, -apple-system, system-ui, sans-serif">
    <rect x="490" y="505" width="220" height="50" rx="10" fill="#fde68a" stroke="#d97706" stroke-width="2.5"/>
    <text x="600" y="535" text-anchor="middle" font-size="16" font-weight="700" fill="#78350f">Knowledge Graph</text>

    <rect x="490" y="595" width="220" height="50" rx="10" fill="#fde68a" stroke="#d97706" stroke-width="2.5"/>
    <text x="600" y="625" text-anchor="middle" font-size="16" font-weight="700" fill="#78350f">Curated wiki</text>

    <rect x="490" y="685" width="220" height="50" rx="10" fill="#fde68a" stroke="#d97706" stroke-width="2.5"/>
    <text x="600" y="710" text-anchor="middle" font-size="16" font-weight="700" fill="#78350f">Long-term memory</text>
    <text x="600" y="728" text-anchor="middle" font-size="11" font-weight="500" fill="#92400e" font-style="italic">MEMORY.md</text>

    <rect x="490" y="775" width="220" height="50" rx="10" fill="#fde68a" stroke="#d97706" stroke-width="2.5"/>
    <text x="600" y="800" text-anchor="middle" font-size="16" font-weight="700" fill="#78350f">Work patterns</text>
    <text x="600" y="818" text-anchor="middle" font-size="11" font-weight="500" fill="#92400e" font-style="italic">PATTERNS.md</text>
  </g>

  <!-- RIGHT: Agent Actions -->
  <g font-family="Inter, -apple-system, system-ui, sans-serif">
    <rect x="880" y="425" width="240" height="50" rx="10" fill="#a7f3d0" stroke="#059669" stroke-width="2"/>
    <text x="1000" y="455" text-anchor="middle" font-size="16" font-weight="700" fill="#064e3b">Daily briefings</text>

    <rect x="880" y="495" width="240" height="50" rx="10" fill="#a7f3d0" stroke="#059669" stroke-width="2"/>
    <text x="1000" y="525" text-anchor="middle" font-size="16" font-weight="700" fill="#064e3b">Meeting intelligence</text>

    <rect x="880" y="565" width="240" height="50" rx="10" fill="#a7f3d0" stroke="#059669" stroke-width="2"/>
    <text x="1000" y="595" text-anchor="middle" font-size="16" font-weight="700" fill="#064e3b">Real-time answers</text>

    <rect x="880" y="635" width="240" height="50" rx="10" fill="#a7f3d0" stroke="#059669" stroke-width="2"/>
    <text x="1000" y="665" text-anchor="middle" font-size="16" font-weight="700" fill="#064e3b">Published artifacts</text>

    <rect x="880" y="705" width="240" height="50" rx="10" fill="#a7f3d0" stroke="#059669" stroke-width="2"/>
    <text x="1000" y="735" text-anchor="middle" font-size="16" font-weight="700" fill="#064e3b">Proactive nudges</text>
  </g>

  <!-- Synthesis band -->
  <g transform="translate(600, 890)">
    <rect x="-310" y="-22" width="620" height="44" rx="22" ry="22" fill="#f8fafc" stroke="#94a3b8" stroke-width="2"/>
    <text x="0" y="-2" text-anchor="middle" font-family="Inter, sans-serif" font-size="11" font-weight="700" letter-spacing="3" fill="#475569">SYNTHESIS</text>
    <text x="0" y="15" text-anchor="middle" font-family="Inter, sans-serif" font-size="13" font-style="italic" fill="#475569">automated jobs turn raw signals into durable knowledge</text>
  </g>



</svg>
